<?xml version="1.0" encoding="utf-8"?>
<!-- Generator: Adobe Illustrator 17.0.0, SVG Export Plug-In . SVG Version: 6.00 Build 0)  -->
<!DOCTYPE svg PUBLIC "-//W3C//DTD SVG 1.1 Basic//EN" "http://www.w3.org/Graphics/SVG/1.1/DTD/svg11-basic.dtd">
<svg version="1.1" baseProfile="basic" id="Layer_1"
	 xmlns="http://www.w3.org/2000/svg" xmlns:xlink="http://www.w3.org/1999/xlink" x="0px" y="0px" width="388.702px" height="397px"
	 viewBox="0 0 388.702 397" xml:space="preserve">
<g>
	<path fill="#CC9F5A" d="M380.352,154.136c3.439,1.079,5.714-0.763,7.327-3.652c0-6.749,0-13.498,0-20.247
		c-3.338-7.63-9.245-10.023-17.386-9.874c-20.481,0.377-40.974,0.116-61.462,0.129c-9.66,0.006-14.857,5.167-14.889,14.735
		c-0.008,2.467-0.001,4.933-0.001,7.573c-5.811,0-11.265,0-16.905,0c-3.079-8.622-8.987-14.046-18.509-13.972
		c-9.347,0.074-15.169,5.432-18.193,14.155c-5.618,0-11.109,0.068-16.595-0.071c-0.852-0.022-2.177-0.81-2.447-1.549
		c-5.476-15-16.079-24.315-31.589-28.594c0-5.979,0.034-11.959-0.008-17.939c-0.055-7.789-4.835-12.561-12.666-12.576
		c-17.74-0.033-35.479-0.011-53.219-0.011c-1.36,0-2.719,0-4.576,0c0-5.266-0.103-10.339,0.121-15.398
		c0.03-0.683,1.61-1.582,2.622-1.894c13.769-4.24,22.781-16.036,22.814-29.998c0.033-14.235-9.164-26.408-22.865-30.286
		c-1.17-0.331-2.309-0.773-3.463-1.164c-3.25,0-6.499,0-9.749,0c-1.514,0.496-3.026,0.999-4.543,1.487
		C91.01,9.227,82.35,21.142,82.385,34.969c0.034,13.568,8.677,25.558,21.824,29.464c3.293,0.978,3.971,2.44,3.809,5.434
		c-0.215,3.964-0.053,7.949-0.053,12.376c-1.597,0-2.925,0-4.253,0c-17.62,0-35.24-0.009-52.86,0.004
		c-8.819,0.006-13.357,4.559-13.376,13.381c-0.012,5.618-0.002,11.235-0.002,16.858c-3.448,1.393-6.9,2.472-10.058,4.118
		c-12.513,6.522-20.161,16.788-22.972,30.638c-0.172,0.845-0.474,1.663-0.716,2.493c0,49.244,0,98.488,0,147.732
		c0.329,1.321,0.654,2.642,0.987,3.962c3.851,15.256,13.011,25.805,27.8,31.368c0.807,0.303,1.598,0.651,2.652,1.082
		c-5.237,12.122-10.379,24.135-15.623,36.102c-1.954,4.46-2.261,8.857,0.955,12.67c1.686,1.999,4.287,3.228,6.475,4.805
		c57.742,0,115.485,0,173.228,0c9.153-4.723,10.829-9.535,6.658-19.194c-4.399-10.186-8.818-20.364-13.216-30.551
		c-0.534-1.237-0.99-2.508-1.554-3.947c9.869-3.143,17.768-8.727,23.738-17.022c0.523-0.727,1.859-1.207,2.826-1.221
		c7.112-0.102,14.227-0.055,21.597-0.055c3.362,9.243,9.719,14.614,19.91,14.153c7.678-0.347,13.16-5.087,16.954-14.22
		c11.717,0,23.572,0.263,35.412-0.059c20.09-0.547,34.541-10.087,43.158-28.27c3.052-6.44,3.893-13.356,3.884-20.421
		c-0.025-19.606-0.007-39.213-0.007-58.819c0-1.474,0-2.948,0-4.851c3.811,0,7.298-0.262,10.732,0.052
		c8.141,0.746,14.042-2.184,17.385-9.801c0-6.749,0-13.498,0-20.247c-2.042-2.277-4.165-4.417-7.632-3.029
		c-3.433,1.374-3.705,4.3-3.636,7.451c0.082,3.744-0.037,7.491,0.037,11.235c0.045,2.245-0.933,3.112-3.147,3.108
		c-21.722-0.035-43.445-0.03-65.167-0.008c-2.034,0.002-2.956-0.848-2.953-2.907c0.023-18.102,0.023-36.204,0.004-54.306
		c-0.002-2.126,1.08-2.804,3.051-2.802c21.722,0.024,43.445,0.029,65.167-0.006c2.292-0.004,3.083,1.041,3.045,3.206
		c-0.07,3.994,0.064,7.992-0.043,11.984C376.318,150.151,376.886,153.048,380.352,154.136z M93.631,34.669
		c0.039-11.06,9-19.953,20.059-19.909c11.037,0.045,19.885,9.011,19.852,20.118c-0.033,11.101-8.926,19.901-20.061,19.849
		C102.353,54.675,93.592,45.822,93.631,34.669z M48.915,93.774c43.006,0,86.003,0,129.388,0c0,6.038,0,11.861,0,17.912
		c-43.166,0-86.18,0-129.388,0C48.915,105.695,48.915,99.877,48.915,93.774z M197.332,374.782c0.135,0.314,0.072,0.713,0.115,1.249
		c-11.008,0-21.933,0-33.24,0c0-6.38,0.022-12.592-0.007-18.803c-0.021-4.394-2.082-7.008-5.5-7.091
		c-3.549-0.087-5.717,2.61-5.735,7.226c-0.024,6.108-0.006,12.217-0.006,18.583c-11.245,0-22.281,0-33.746,0
		c0-6.242,0.066-12.449-0.047-18.653c-0.029-1.561-0.126-3.718-1.092-4.528c-1.527-1.281-3.868-2.383-5.767-2.243
		c-2.95,0.217-4.319,2.68-4.329,5.653c-0.022,6.49-0.007,12.979-0.007,19.882c-11.386,0-22.333,0-33.755,0.001
		c0-6.549-0.017-13,0.008-19.45c0.011-2.743-0.912-4.894-3.58-5.99c-3.807-1.564-7.54,1.017-7.632,5.495
		c-0.134,6.492-0.034,12.989-0.034,19.789c-11.138,0-22.151,0-33.559,0c1.049-2.562,1.991-4.971,3.015-7.345
		c4.348-10.08,8.791-20.121,13.027-30.248c0.913-2.181,2.033-2.975,4.403-2.971c42.486,0.066,84.973,0.031,127.46,0.128
		c1.308,0.003,3.354,0.863,3.808,1.88C186.672,349.762,191.981,362.282,197.332,374.782z M212.193,290.978
		c-0.059,18.656-12.511,31.851-31.184,33.022c-3.361,0.211-6.743,0.13-10.116,0.131c-40.36,0.007-80.719-0.063-121.079,0.045
		c-12.041,0.032-22.347-3.629-28.979-13.966c-2.863-4.462-5.289-10.041-5.502-15.212c-0.689-16.701-0.257-33.448-0.257-50.719
		c7.117,0,13.843,0.022,20.569-0.01c4.419-0.02,6.985-2.047,7.056-5.475c0.075-3.577-2.582-5.737-7.195-5.757
		c-6.715-0.029-13.429-0.007-20.334-0.007c0-6.403,0-12.45,0-18.68c65.616,0,131.046,0,196.753,0c0,6.038,0,12.087,0,18.68
		c-1.373,0-2.814,0-4.255,0c-47.107,0-94.215,0-141.322,0.001c-5.826,0-8.482,1.704-8.592,5.497c-0.113,3.896,2.673,5.75,8.666,5.75
		c46.982,0.002,93.965,0.001,140.947,0.001c1.473,0,2.945,0,4.833,0c0,2.172,0,4.005,0,5.839
		C212.202,263.738,212.236,277.358,212.193,290.978z M212.201,198.63c0.002,1.241,0,2.481,0,4.006c-65.711,0-131.23,0-196.621,0
		c0-17.995-1.013-35.789,0.316-53.406c1.092-14.476,14.129-25.682,28.705-25.802c45.981-0.378,91.97-0.412,137.951,0.012
		c15.768,0.145,28.816,13.395,29.438,29.084C212.598,167.872,212.173,183.26,212.201,198.63z M277.619,154.508
		c5.278,0,10.557,0,16.081,0c0,4.748,0,9.526,0,14.516c-5.259,0-10.448,0-16.081,0C277.619,164.165,277.619,159.475,277.619,154.508
		z M251.225,148.009c0.042-4.753,3.27-8.044,7.55-7.996c4.274,0.048,7.321,3.34,7.401,8.161c0.075,4.483,0.016,8.968,0.016,13.452
		c0.001,4.484,0.047,8.969-0.013,13.452c-0.066,5.047-3.167,8.424-7.57,8.374c-4.273-0.049-7.355-3.343-7.391-8.165
		C251.151,166.195,251.143,157.101,251.225,148.009z M223.661,154.413c5.351,0,10.54,0,16.008,0c0,4.767,0,9.547,0,14.576
		c-5.238,0-10.516,0-16.008,0C223.661,164.148,223.661,159.37,223.661,154.413z M239.727,303.893c-5.823,0-11.718,0-17.532,0
		c0.539-4.752,1.071-9.44,1.635-14.412c5.088,0,10.381,0,15.897,0C239.727,294.2,239.727,298.897,239.727,303.893z M266.159,310.546
		c-0.048,4.71-3.391,8.004-7.662,7.888c-4.146-0.112-7.18-3.315-7.273-7.904c-0.096-4.731-0.021-9.466-0.021-14.199
		c0.001-4.484-0.075-8.969,0.021-13.454c0.099-4.572,3.149-7.78,7.29-7.883c4.279-0.107,7.599,3.178,7.646,7.9
		C266.252,292.111,266.253,301.33,266.159,310.546z M333.286,267.472c0.107-13.486,0.028-26.972,0.029-40.458
		c0-7.854,0-15.708,0-23.797c4.97,0,9.66,0,14.732,0c0.084,1.154,0.244,2.338,0.245,3.522c0.015,19.979,0.068,39.958-0.005,59.937
		c-0.082,22.483-15.178,37.429-37.741,37.478c-10.848,0.024-21.697,0.004-32.934,0.004c0-5.171,0-9.86-0.001-14.941
		c10.99,0,21.815,0.015,32.64-0.013c1.992-0.005,4.024,0.036,5.968-0.322C326.668,286.956,333.196,278.83,333.286,267.472z
		 M307.25,202.959c4.731,0.091,9.465,0.017,14.58,0.017c0.085,1.544,0.218,2.856,0.219,4.169
		c0.013,19.622,0.021,39.245,0.003,58.867c-0.008,8.836-3.151,11.952-11.968,11.956c-10.99,0.005-21.981,0.001-32.988,0.001
		c-3.211-8.901-9.143-14.287-18.693-14.158c-9.209,0.125-14.96,5.397-18.04,14.068c-5.645,0-11.003,0-16.635,0.001
		c0-32.372,0-64.657,0-97.17c5.439,0,10.886,0,16.596,0c3.224,8.755,9.32,14.297,19.193,13.914c9-0.349,14.592-5.669,17.499-13.994
		c5.563,0,11.027,0,16.929,0c0,3.09-0.052,6.049,0.01,9.006C294.117,197.334,299.556,202.812,307.25,202.959z"/>
	<path fill="#CC9F5A" d="M321.607,161.667c-0.022,10.671,8.649,19.409,19.233,19.384c10.592-0.025,19.217-8.774,19.171-19.449
		c-0.046-10.629-8.886-19.359-19.424-19.185C330.078,142.591,321.628,151.162,321.607,161.667z M348.745,161.71
		c0.009,4.491-3.688,8.167-8.104,8.057c-4.302-0.107-7.757-3.673-7.767-8.017c-0.011-4.498,3.678-8.165,8.101-8.053
		C345.285,153.806,348.736,157.365,348.745,161.71z"/>
</g>
</svg>
