<?xml version="1.0" encoding="utf-8"?>
<!-- Generator: Adobe Illustrator 17.0.0, SVG Export Plug-In . SVG Version: 6.00 Build 0)  -->
<!DOCTYPE svg PUBLIC "-//W3C//DTD SVG 1.1 Basic//EN" "http://www.w3.org/Graphics/SVG/1.1/DTD/svg11-basic.dtd">
<svg version="1.1" baseProfile="basic" id="Layer_1"
	 xmlns="http://www.w3.org/2000/svg" xmlns:xlink="http://www.w3.org/1999/xlink" x="0px" y="0px" width="388.702px" height="397px"
	 viewBox="0 0 388.702 397" xml:space="preserve">
<g>
	<path fill="#CC9F5A" d="M373.626,3.75c-119.017,0-238.033,0-357.05,0C9.759,5.934,5.242,10.419,3.074,17.252
		c0,119.017,0,238.033,0,357.05c2.176,6.825,6.686,11.316,13.502,13.502c119.017,0,238.033,0,357.05,0
		c6.814-2.188,11.313-6.689,13.502-13.502c0-119.017,0-238.033,0-357.05C384.943,10.435,380.45,5.927,373.626,3.75z M212.196,15.014
		c52.12-0.013,104.24-0.016,156.36-0.006c5.223,0.001,7.304,1.883,7.306,6.769c0.021,52.62,0.013,105.24,0.007,157.859
		c0,0.478-0.073,0.955-0.181,2.288c-6.17-6.155-11.838-11.763-17.425-17.452c-0.62-0.631-1.087-1.723-1.09-2.603
		c-0.059-22.115-0.047-44.231-0.047-66.582c6.768-1.874,8.023-6.893,7.941-13.095c-0.195-14.746-0.049-29.496-0.068-44.245
		c-0.012-8.896-3.104-12.009-11.91-12.016c-15.499-0.014-30.997,0.042-46.495-0.03c-4.838-0.022-8.458,1.547-10.48,6.249
		c-0.341,0.793-1.853,1.534-2.828,1.538c-21.248,0.087-42.496,0.085-63.743,0.013c-1.109-0.004-2.5-0.491-3.278-1.248
		c-5.639-5.487-11.154-11.102-17.14-17.11C210.45,15.195,211.323,15.014,212.196,15.014z M295.615,346.317
		c-18.789,0-37.311,0-57.033,0c4.159-4.026,7.6-7.533,11.24-10.82c2.519-2.275,3.495-4.891,3.464-8.267
		c-0.12-12.739-0.048-25.481-0.047-38.221c0-1.466,0-2.933,0-4.814c6.501,0,12.588,0.014,18.675-0.004
		c8.088-0.023,11.583-3.542,11.607-11.679c0.017-5.978,0.003-11.956,0.003-18.339c1.548-0.08,2.861-0.205,4.173-0.206
		c12.865-0.015,25.731-0.08,38.596,0.037c3.495,0.032,6.255-0.931,8.604-3.584c3.208-3.622,6.638-7.049,10.706-11.332
		c0,19.741,0,38.242,0,57.203c-12.996,0-25.724-0.008-38.452,0.003c-8.14,0.007-11.528,3.428-11.534,11.64
		C295.608,320.652,295.615,333.369,295.615,346.317z M306.968,307.853c15.411,0,30.81,0,46.494,0c0,15.379,0,30.778,0,46.398
		c-15.505,0-30.822,0-46.494,0C306.968,338.631,306.968,323.397,306.968,307.853z M328.964,240.205
		c-1.401,1.376-3.831,2.356-5.804,2.392c-11.865,0.219-23.735,0.109-35.604,0.109c-1.22,0-2.441,0-3.679,0
		c-0.912-6.122-0.589-10.978,4.418-15.413c8.401-7.442,16.045-15.742,23.97-23.718c5.277-5.312,5.271-10.292-0.017-15.615
		c-7.748-7.8-15.221-15.917-23.438-23.191c-4.981-4.409-6.168-9.189-4.851-15.826c8.882,0,17.727-0.027,26.571,0.01
		c5.364,0.023,11.32-1.284,15.926,0.624c4.602,1.907,7.889,7.039,11.689,10.821c11.686,11.628,23.341,23.286,35.321,35.244
		c-0.938,1.013-1.72,1.916-2.561,2.759C356.955,212.366,343.044,226.372,328.964,240.205z M248.976,55.191
		c-3.421-2.871-6.546-6.095-10.589-9.907c19.76,0,38.266,0,57.228,0c0,0.95-0.024,1.694,0.004,2.437
		c0.156,4.158,2.188,6.542,5.579,6.565c3.515,0.024,5.613-2.491,5.661-6.861c0.035-3.229,0.007-6.459,0.007-9.964
		c15.571,0,30.865,0,46.519,0c0,15.342,0,30.731,0,46.337c-15.322,0-30.643,0-46.521,0c0-2.642,0.053-5.334-0.013-8.022
		c-0.094-3.859-2.175-6.207-5.462-6.29c-3.459-0.087-5.678,2.315-5.76,6.363c-0.063,3.122-0.063,6.248-0.002,9.37
		c0.123,6.216,3.868,9.987,10.133,10.023c11.868,0.067,23.738,0.021,35.606,0.021c1.353,0,2.706,0,4.277,0
		c0,18.799,0,37.322,0,56.991c-3.935-4.053-7.398-7.376-10.565-10.96c-2.454-2.777-5.29-3.705-8.931-3.661
		c-12.742,0.154-25.486,0.06-38.229,0.059c-1.345,0-2.689,0-4.395,0c0-6.529,0.015-12.626-0.004-18.722
		c-0.025-8.093-3.542-11.581-11.675-11.61c-5.746-0.021-11.493-0.033-17.239-0.06c-0.235-0.001-0.47-0.118-1.151-0.301
		c-0.066-1.163-0.204-2.47-0.205-3.778c-0.017-12.494-0.15-24.989,0.066-37.479C253.39,61.417,252.356,58.027,248.976,55.191z
		 M195.167,17.63c0.977,0.898,1.905,1.692,2.767,2.553c13.874,13.862,27.789,27.684,41.531,41.675
		c1.377,1.402,2.366,3.828,2.402,5.8c0.22,11.863,0.114,23.733,0.102,35.6c-0.001,1.223-0.102,2.445-0.164,3.83
		c-5.69,0.58-10.507,0.761-14.917-4.228c-7.513-8.502-15.915-16.221-23.979-24.232c-5.331-5.296-10.276-5.296-15.597-0.007
		c-8.062,8.014-16.475,15.724-23.974,24.237c-4.415,5.012-9.241,4.78-15.115,4.228c0-5.492,0-10.831,0-16.169
		c0-7.87-0.088-15.742,0.075-23.608c0.033-1.576,0.58-3.567,1.633-4.633c14.563-14.761,29.255-29.395,43.924-44.052
		C194.191,18.287,194.616,18.042,195.167,17.63z M14.326,177.569c0-51.497-0.001-102.994,0.002-154.491
		c0-6.382,1.647-8.073,7.886-8.073C73.836,15,125.458,15.002,177.079,15.002c1.102,0,2.205,0,4.478,0
		c-6.416,6.393-12.031,12.052-17.751,17.602c-0.701,0.681-1.965,1.1-2.97,1.102c-21.993,0.062-43.986,0.047-66.228,0.047
		c-1.799-6.542-6.567-7.983-12.705-7.896c-14.996,0.212-29.997,0.056-44.997,0.075c-8.408,0.01-11.679,3.188-11.698,11.466
		c-0.037,15.624,0.019,31.248-0.025,46.872c-0.014,4.812,1.57,8.465,6.279,10.482c0.795,0.341,1.489,1.831,1.542,2.827
		c0.188,3.49,0.015,6.997,0.092,10.495c0.084,3.821,2.249,6.182,5.54,6.218c3.31,0.036,5.582-2.311,5.667-6.089
		c0.092-4.117,0.021-8.237,0.021-12.941c1.454,0,2.765,0,4.075,0c11.124,0,22.249,0.001,33.373,0
		c9.792-0.001,12.813-2.98,12.814-12.64c0.001-12.361,0-24.723,0-37.35c18.733,0,37.271,0,56.598,0
		c-3.81,3.833-7.137,7.436-10.748,10.728c-2.635,2.402-3.561,5.124-3.525,8.621c0.132,12.623,0.051,25.248,0.051,37.872
		c0,1.473,0,2.945,0,4.864c-6.463,0-12.552-0.013-18.64,0.003c-8.126,0.022-11.618,3.514-11.641,11.645
		c-0.018,6.092-0.003,12.184-0.003,18.685c-1.997,0-3.595,0-5.193,0c-12.749,0-25.499,0.063-38.247-0.045
		c-3.109-0.026-5.5,0.886-7.612,3.186c-3.368,3.67-6.942,7.151-11.299,11.601c0-6.306,0.054-11.465-0.017-16.623
		c-0.056-4.028-2.342-6.429-5.808-6.313c-3.288,0.11-5.376,2.451-5.404,6.341c-0.059,8.249,0.09,16.502-0.112,24.746
		c-0.04,1.642-0.882,3.613-2.009,4.819c-5.153,5.516-10.539,10.815-16.651,17.011C14.326,179.964,14.326,178.767,14.326,177.569z
		 M83.028,37.461c0,15.314,0,30.7,0,46.354c-15.537,0-30.848,0-46.363,0c0-15.488,0-30.779,0-46.354
		C52.128,37.461,67.424,37.461,83.028,37.461z M78.294,203.923c7.584,7.609,14.885,15.539,22.898,22.668
		c5.01,4.458,6.524,9.294,5.005,16.115c-7.585,0-15.183,0.036-22.781-0.011c-6.609-0.04-13.926,1.565-19.623-0.76
		c-5.561-2.269-9.49-8.571-14.094-13.146c-10.895-10.826-21.765-21.678-32.968-32.841c0.955-1.039,1.727-1.943,2.565-2.782
		c13.952-13.961,27.889-27.937,41.915-41.823c1.132-1.121,2.879-2.274,4.355-2.293c13.114-0.169,26.232-0.089,39.348-0.067
		c0.467,0.001,0.934,0.169,1.419,0.262c1.001,5.88,0.499,10.683-4.494,15.093c-8.224,7.263-15.676,15.401-23.441,23.183
		C72.518,193.417,72.485,198.095,78.294,203.923z M136.927,327.564c-0.022,3.09,0.86,5.519,3.172,7.624
		c3.689,3.36,7.206,6.91,11.46,11.021c-19.44,0-37.917,0-56.971,0c0-10.794,0-21.51,0-32.225c0-2.498,0.036-4.998-0.009-7.495
		c-0.117-6.437-3.841-10.154-10.356-10.182c-11.867-0.052-23.735-0.015-35.603-0.016c-1.241,0-2.482,0-4.005,0
		c0-18.697,0-37.234,0-56.531c1.904,1.862,3.508,3.45,5.133,5.015c11.371,10.957,5.965,9,22.355,9.164
		c9.993,0.1,19.987,0.018,29.981,0.018c1.358,0,2.715,0,4.595,0c0,5.979-0.002,11.682,0,17.386
		c0.003,9.7,3.109,12.837,12.685,12.855c5.495,0.01,10.99,0.049,16.485,0.094c0.22,0.002,0.439,0.192,1.114,0.508
		c0,1.247,0,2.704,0,4.162C136.964,301.83,137.018,314.698,136.927,327.564z M83.048,307.662c0,15.454,0,30.873,0,46.549
		c-15.352,0-30.76,0-46.379,0c0-15.581,0-30.9,0-46.549C52.321,307.662,67.541,307.662,83.048,307.662z M176.949,376.552
		c-51.498,0-102.997,0.001-154.495-0.002c-6.518,0-8.127-1.629-8.127-8.215c-0.002-51.498-0.001-102.997-0.001-154.495
		c0-1.111,0-2.223,0-4.303c2.712,2.643,4.894,4.71,7.009,6.842c3.869,3.902,9.17,7.23,11.129,11.939
		c1.956,4.703,0.598,10.804,0.606,16.293c0.025,17.121,0.009,34.242,0.009,51.662c-6.751,1.791-8.023,6.805-7.943,13.014
		c0.192,14.872,0.041,29.748,0.071,44.623c0.017,8.513,3.281,11.78,11.832,11.802c15.124,0.038,30.249-0.039,45.373,0.038
		c5.268,0.027,9.642-1.111,11.778-6.639c0.262-0.678,1.739-1.254,2.655-1.257c21.249-0.07,42.498-0.063,63.747-0.026
		c0.938,0.002,2.171,0.117,2.765,0.695c5.875,5.706,11.644,11.521,18.169,18.029C179.325,376.552,178.137,376.552,176.949,376.552z
		 M194.921,373.782c-0.639-0.565-1.401-1.169-2.084-1.852c-14.057-14.046-28.153-28.054-42.08-42.229
		c-1.38-1.404-2.385-3.824-2.422-5.793c-0.222-11.869-0.115-23.744-0.103-35.618c0.001-1.223,0.104-2.445,0.168-3.852
		c5.506-0.38,10.667-1.325,14.628,4.036c2.274,3.078,5.844,2.953,8.234,0.698c2.486-2.345,2.148-5.49-0.399-8.636
		c-4.568-5.642-10.017-8.149-17.544-7.753c-11.574,0.608-23.204,0.16-35.389,0.16c0-1.582,0-2.899,0-4.216
		c0-11.873-0.075-23.747,0.043-35.619c0.037-3.771-1.216-6.707-3.883-9.332c-8.462-8.328-16.818-16.764-25.207-25.166
		c-0.867-0.868-1.681-1.788-2.891-3.081c4.392-4.29,8.684-8.438,12.926-12.637c4.974-4.924,9.83-9.969,14.883-14.81
		c2.9-2.778,4.237-5.909,4.184-9.969c-0.152-11.621-0.053-23.246-0.053-34.869c0-1.356,0-2.713,0-4.635c1.596,0,2.914,0,4.232,0
		c11.873,0,23.747-0.073,35.619,0.041c3.771,0.036,6.701-1.235,9.325-3.902c8.326-8.464,16.764-16.818,25.166-25.207
		c0.868-0.867,1.787-1.682,2.939-2.762c6.551,6.562,12.91,13.065,19.413,19.419c15.38,15.026,8.554,12.115,29.756,12.391
		c9.105,0.118,18.212,0.02,27.892,0.02c0,1.587,0,2.905,0,4.222c0,11.873,0.077,23.747-0.044,35.619
		c-0.038,3.776,1.231,6.702,3.896,9.324c8.463,8.328,16.818,16.764,25.208,25.166c0.866,0.867,1.681,1.783,2.88,3.06
		c-4.386,4.297-8.668,8.454-12.908,12.655c-4.794,4.75-9.432,9.665-14.362,14.268c-3.347,3.125-4.836,6.617-4.744,11.247
		c0.226,11.369,0.074,22.745,0.074,34.119c0,1.359,0,2.719,0,4.654c-1.581,0-2.897,0-4.214,0c-11.873,0-23.747,0.075-35.619-0.043
		c-3.771-0.037-6.701,1.219-9.327,3.889c-8.325,8.465-16.764,16.818-25.166,25.207c-0.869,0.868-1.786,1.687-3.525,3.324
		c-1.474-1.868-2.692-3.789-4.277-5.334c-2.58-2.514-5.744-2.498-8.026-0.269c-2.284,2.231-2.326,5.409,0.065,8.044
		c1.846,2.033,3.824,3.953,5.817,5.846c4.575,4.344,9.74,4.389,14.259-0.061c8.193-8.067,16.662-15.903,24.261-24.503
		c4.439-5.024,9.245-5.449,15.446-4.471c0,13.863,0.027,27.479-0.056,41.094c-0.006,0.992-0.564,2.221-1.273,2.935
		c-14.897,14.973-29.852,29.888-44.805,44.805C195.675,373.563,195.391,373.594,194.921,373.782z M375.876,214.1
		c0,51.37,0.001,102.74-0.001,154.11c0,6.789-1.561,8.341-8.383,8.341c-51.37,0.002-102.74,0.001-154.11,0.001
		c-1.208,0-2.417,0-4.516,0c6.44-6.477,12.241-12.394,18.183-18.167c0.643-0.625,2.101-0.562,3.182-0.563
		c20.748-0.03,41.496-0.002,62.244-0.054c2.051-0.005,3.309,0.301,4.21,2.548c1.493,3.721,4.793,5.34,8.72,5.351
		c16.623,0.044,33.245,0.015,49.868,0.009c0.248,0,0.497-0.053,0.745-0.081c5.32-0.596,8.764-3.661,8.824-8.927
		c0.194-17.119,0.126-34.242,0.049-51.363c-0.017-3.84-2.044-6.763-5.611-8.129c-2.004-0.767-2.183-1.924-2.18-3.68
		c0.038-20.998,0.008-41.996,0.069-62.994c0.003-1.136,0.326-2.593,1.064-3.355c5.554-5.741,11.25-11.345,17.643-17.733
		C375.876,211.672,375.876,212.886,375.876,214.1z"/>
	<path fill="#CC9F5A" d="M188.463,282.271c4.613,4.561,8.686,4.563,13.29,0.009c6.219-6.15,12.31-12.431,18.629-18.476
		c1.189-1.137,3.174-1.983,4.813-2.02c8.742-0.196,17.491-0.064,26.237-0.103c6.585-0.029,9.553-3.031,9.58-9.68
		c0.036-8.621-0.106-17.246,0.105-25.862c0.043-1.756,0.892-3.884,2.095-5.152c5.846-6.161,11.95-12.078,17.941-18.102
		c5.11-5.138,5.139-9.023,0.124-14.096c-2.986-3.021-5.736-6.354-9.058-8.951c-9.027-7.056-14.218-15.478-11.199-25.24
		c0-6.501,0.033-10.875-0.008-15.247c-0.059-6.384-3.069-9.443-9.403-9.476c-8.746-0.046-17.496,0.105-26.237-0.112
		c-1.746-0.043-3.852-0.951-5.125-2.161c-6.244-5.941-12.243-12.139-18.368-18.206c-4.77-4.724-8.774-4.717-13.556,0.021
		c-6.125,6.068-12.122,12.267-18.368,18.207c-1.271,1.209-3.385,2.098-5.135,2.141c-8.741,0.215-17.491,0.065-26.237,0.111
		c-6.336,0.034-9.36,3.093-9.392,9.484c-0.043,8.496-0.105,16.995,0.046,25.489c0.046,2.572-0.638,4.431-2.513,6.234
		c-5.762,5.542-11.347,11.269-17.001,16.924c-6.026,6.027-6.055,9.481-0.132,15.408c5.741,5.745,11.413,11.561,17.264,17.192
		c1.789,1.722,2.404,3.5,2.371,5.912c-0.117,8.495-0.071,16.993-0.037,25.489c0.026,6.62,3.023,9.648,9.588,9.676
		c8.746,0.038,17.495-0.093,26.237,0.102c1.641,0.037,3.632,0.873,4.82,2.01C176.154,269.838,182.244,276.122,188.463,282.271z
		 M176.918,254.724c-2.984-3.156-6.266-4.48-10.606-4.355c-8.461,0.244-16.934,0.072-25.879,0.072
		c0-7.691-0.424-15.052,0.122-22.342c0.523-6.979-1.588-12.175-6.911-16.729c-5.48-4.688-10.358-10.08-16.014-15.672
		c3.739-3.622,6.887-7.417,10.739-10.257c10.141-7.479,13.972-17.149,12.173-29.549c-0.673-4.637-0.109-9.453-0.109-14.779
		c1.689,0,3.129,0,4.569,0c7.623-0.001,15.262,0.283,22.86-0.154c2.715-0.156,5.862-1.458,7.889-3.27
		c5.768-5.155,11.056-10.847,16.545-16.315c0.865-0.861,1.795-1.657,2.963-2.728c6.135,6.151,12.237,12.032,18.045,18.19
		c2.988,3.168,6.274,4.469,10.608,4.346c8.459-0.239,16.93-0.07,25.858-0.07c0,7.958,0.386,15.566-0.118,23.114
		c-0.43,6.444,1.562,11.191,6.411,15.421c5.626,4.907,10.71,10.436,16.414,16.075c-6.66,6.633-12.785,12.864-19.07,18.93
		c-2.618,2.527-3.759,5.331-3.69,8.981c0.165,8.731,0.053,17.468,0.053,26.623c-1.542,0.068-2.86,0.173-4.179,0.176
		c-7.748,0.016-15.512-0.271-23.235,0.161c-2.712,0.152-5.86,1.455-7.884,3.265c-5.766,5.157-11.052,10.85-16.54,16.32
		c-0.862,0.86-1.791,1.653-2.97,2.733C188.829,266.762,182.734,260.875,176.918,254.724z"/>
	<path fill="#CC9F5A" d="M190.424,245.533c3.146,3.019,6.103,3.116,9.168,0.195c3.884-3.702,7.073-8.976,11.671-10.852
		c4.73-1.929,10.796-0.526,16.275-0.688c3.982-0.118,5.886-2.044,5.979-6.087c0.104-4.494-0.151-9.004,0.128-13.483
		c0.103-1.662,0.929-3.563,2.034-4.822c2.794-3.186,5.96-6.043,8.926-9.082c3.479-3.565,3.439-6.345-0.082-9.975
		c-1.391-1.434-2.7-2.986-4.258-4.214c-5.254-4.14-8.559-9.016-6.714-16.084c0-1.499,0.002-2.998,0-4.497
		c-0.011-7.404-1.314-9.304-8.738-8.441c-10.012,1.163-17.309-2.057-23.563-9.827c-4.625-5.747-7.678-5.803-12.109-0.157
		c-6.393,8.147-14.049,11.172-24.255,9.969c-6.802-0.802-8.903,1.299-8.072,8.188c1.236,10.255-1.96,17.845-10.059,24.218
		c-5.478,4.31-5.466,7.466,0.08,11.838c7.98,6.291,11.593,13.819,9.836,23.861c-0.127,0.727-0.033,1.497-0.007,2.245
		c0.157,4.441,1.984,6.282,6.485,6.363c5.243,0.095,11.093-1.346,15.563,0.534C183.313,236.672,186.556,241.822,190.424,245.533z
		 M179.078,222.932c-3.581,0.157-7.174,0.036-11.684,0.036c2.772-11.633-0.796-20.534-11.298-26.72
		c3.055-3.06,5.453-5.71,8.116-8.059c2.752-2.428,3.966-5.245,3.736-8.915c-0.21-3.348-0.045-6.72-0.045-11.206
		c11.698,2.685,20.652-0.761,27.102-12.134c3.276,3.743,5.84,6.594,8.313,9.522c2.023,2.394,4.544,3.276,7.63,3.161
		c3.597-0.134,7.204-0.031,10.991-0.031c0.326,5.458-0.591,11.141,1.291,15.658c1.841,4.418,6.535,7.648,10.474,11.941
		c-2.054,1.906-3.995,4.02-6.245,5.728c-4.331,3.288-5.79,7.527-5.21,12.803c0.282,2.563,0.049,5.183,0.049,8.731
		c-11.649-2.696-20.719,0.77-26.741,11.486c-3.329-3.39-6.028-5.957-8.51-8.72C184.867,223.784,182.31,222.79,179.078,222.932z"/>
</g>
</svg>
