<?xml version="1.0" encoding="utf-8"?>
<!-- Generator: Adobe Illustrator 17.0.0, SVG Export Plug-In . SVG Version: 6.00 Build 0)  -->
<!DOCTYPE svg PUBLIC "-//W3C//DTD SVG 1.1 Basic//EN" "http://www.w3.org/Graphics/SVG/1.1/DTD/svg11-basic.dtd">
<svg version="1.1" baseProfile="basic" id="Layer_1"
	 xmlns="http://www.w3.org/2000/svg" xmlns:xlink="http://www.w3.org/1999/xlink" x="0px" y="0px" width="388.702px" height="397px"
	 viewBox="0 0 388.702 397" xml:space="preserve">
<g>
	<path fill="#CC9F5A" d="M4.75,342.208c1.782-2.689,4.193-3.765,7.504-3.898c7.47-0.3,13.379-4.012,18.821-8.983
		c13.019-11.892,31.777-13.512,46.448-4.188c2.615,1.662,4.963,3.778,7.296,5.842c11.212,9.922,26.285,9.967,37.406,0.05
		c7.888-7.034,10.131-8.226,22.041-11.655c0-6.006,0-12.078,0-18.697c-1.592,0.437-2.98,0.75-4.323,1.196
		c-11.478,3.819-22.909,7.784-34.428,11.472c-18.381,5.886-36.054-0.047-47.16-15.834c-1.375-1.954-2.785-2.118-4.735-1.786
		c-7.574,1.289-13.432,7.944-14.269,16.247c-0.472,4.677-2.741,7.103-6.244,6.673c-3.51-0.431-5.373-3.414-4.942-7.911
		c1.186-12.363,9.514-22.287,21.471-25.591c0.838-0.232,1.664-0.506,2.69-0.82c0-5.692-0.892-11.549,0.172-17.026
		c2.855-14.697,11.634-25.055,25.81-30.067c18.459-6.526,37.109-12.514,55.676-18.734c1.386-0.464,2.769-0.939,4.779-1.622
		c-4.11-2.678-7.632-4.989-11.169-7.274c-18.669-12.059-37.342-24.112-56.012-36.168c-14.842-9.584-21.937-23.177-19.461-40.724
		c2.359-16.722,12.382-27.647,28.339-33.075c8.74-2.973,17.51-5.857,26.279-8.743c4.458-1.467,7.51-0.334,8.662,3.111
		c1.099,3.287-0.807,6.046-5.276,7.552c-8.863,2.986-17.74,5.928-26.599,8.925c-15.963,5.4-24.356,21.482-19.326,36.983
		c4.922,15.166,21.743,23.681,37.514,18.501c36.262-11.91,72.442-24.073,108.652-36.142c10.414-3.471,20.877-6.806,31.21-10.503
		c11.938-4.271,19.681-15.999,19.213-28.484c-0.486-12.932-8.964-23.614-21.478-27.129c-6.111-1.717-12.062-1.184-18.026,0.816
		c-27.668,9.275-55.359,18.482-83.041,27.715c-5.814,1.939-8.89,1.186-10.202-2.51c-1.285-3.62,0.799-6.23,6.507-8.149
		c9.94-3.341,9.94-3.341,9.94-13.772c0-6.998-0.048-13.996,0.018-20.993c0.049-5.186,1.885-7.013,7.019-7.051
		c6.872-0.05,13.745-0.053,20.618,0.001c4.995,0.04,6.796,1.803,6.868,6.761c0.092,6.246,0.061,12.494,0.097,18.741
		c0.001,0.23,0.157,0.46,0.362,1.024c0.87-0.198,1.805-0.334,2.688-0.625c11.61-3.825,23.252-7.556,34.806-11.542
		c15.844-5.466,29.961-2.675,42.515,8.355c0.263,0.231,0.62,0.355,1.546,0.869c0-5.428,0.144-10.483-0.05-15.524
		c-0.131-3.387,0.998-5.884,3.421-8.267c10.422-10.252,20.679-20.671,31.012-31.014c1.307-1.308,2.702-2.529,4.057-3.79
		c8.999,0,17.998,0,26.997,0c0.989,0.754,2.081,1.405,2.952,2.278c11.3,11.32,22.603,22.636,33.789,34.068
		c1.118,1.143,2.06,3.026,2.084,4.582c0.175,11.243,0.165,22.492,0.051,33.737c-0.036,3.546-2.447,5.736-5.647,5.717
		c-3.353-0.02-5.484-2.294-5.517-6.177c-0.066-7.872-0.022-15.745-0.023-23.617c0-1.324,0-2.647,0-3.932
		c-27.573,0-54.613,0-81.589,0c0,23.34,0,46.382,0,69.448c3.983,0,7.671,0,11.752,0c0-1.564-0.002-2.907,0-4.249
		c0.016-8.622-0.139-17.248,0.089-25.865c0.383-14.493,12.022-26.661,26.104-27.582c15.548-1.017,29.113,8.927,30.877,23.832
		c1.153,9.744,0.555,19.696,0.733,29.554c0.026,1.44,0.004,2.882,0.004,4.324c4.262,0,7.957,0,12.044,0
		c0-5.671-0.078-11.138,0.029-16.601c0.064-3.301,2.286-5.575,5.245-5.735c3.121-0.169,5.578,2.081,5.913,5.515
		c0.121,1.239,0.045,2.497,0.045,3.747c0.001,72.102,0.001,144.203,0.001,216.305c0,9.004,1.453,10.932,10.276,13.326
		c1.797,0.487,3.693,0.981,5.52,0.907c3.35-0.136,5.716,1.213,7.511,3.878c0,1.25,0,2.5,0,3.75
		c-2.324,3.755-5.843,4.069-9.773,3.557c-9.107-1.186-16.748-5.134-23.508-11.342c-11.508-10.566-26.645-10.384-38.167,0.11
		c-16.419,14.954-37.835,15.073-54.437,0.301c-12.353-10.991-26.818-10.989-39.036,0.007c-16.32,14.688-37.824,14.676-54.152-0.032
		c-12.071-10.873-26.689-10.943-38.749-0.185c-17.095,15.25-37.776,15.053-54.977-0.213c-3-2.662-6.705-4.995-10.491-6.215
		c-10.167-3.276-19.55-1.182-27.393,6.215c-6.678,6.298-14.391,10.17-23.498,11.354c-3.927,0.511-7.453,0.212-9.771-3.559
		C4.75,344.707,4.75,343.458,4.75,342.208z M260.977,257.753c-5.126,2.973-9.855,6.241-15.012,8.56
		c-5.317,2.392-11.012,3.983-16.614,5.688c-3.676,1.119-6.764-0.837-7.351-4.254c-0.542-3.154,1.049-5.512,4.691-6.544
		c8.103-2.296,15.879-5.297,22.606-10.5c8.116-6.278,13.052-14.224,11.524-24.867c-2.87-19.997-20.547-30.855-39.778-24.487
		c-28.883,9.565-57.721,19.263-86.58,28.902c-7.971,2.662-15.946,5.313-24.222,8.069c20.468,14.001,26.559,32.218,17.961,55.453
		c1.51-0.429,2.807-0.743,4.068-1.164c22.839-7.619,45.671-15.259,68.512-22.872c4.455-1.485,7.644-0.322,8.675,3.053
		c1.072,3.51-0.663,6.142-5.175,7.66c-7.328,2.465-14.651,4.952-22.029,7.259c-2.374,0.742-3.332,1.8-3.291,4.454
		c0.171,11.119,0.072,22.241,0.072,33.362c0,7.359,0.451,8.174,7.515,10.825c11.166,4.191,20.821,1.551,29.821-6.076
		c12.993-11.01,27.365-15.807,43.836-7.573c0.157,0.078,0.449-0.114,0.769-0.206C260.977,300.911,260.977,279.306,260.977,257.753z
		 M184.908,150.166c25.703,16.969,50.718,33.484,75.908,50.114c0-26.795,0-53.088,0-78.832c-5.397,2.908-10.676,6.136-16.275,8.651
		c-4.755,2.136-9.875,3.463-14.842,5.123C215.06,140.112,200.418,144.992,184.908,150.166z M72.086,295.377
		c7.036,7.816,15.757,10.171,25.47,8.233c15.76-3.145,26.09-18.451,23.121-33.716c-3.116-16.017-17.92-26.248-33.8-23.359
		c-16.078,2.925-26.326,17.725-23.642,33.976c0.437,2.647,1.379,3.78,4.303,3.701c7.86-0.213,15.731-0.144,23.595-0.029
		c4.321,0.063,7.07,2.983,6.305,6.492c-0.721,3.309-3.024,4.701-6.29,4.702C84.794,295.379,78.44,295.377,72.086,295.377z
		 M284.09,338.438c0-61.647,0-122.037,0-182.573c-3.994,0-7.766,0-11.774,0c0,1.904,0,3.519,0,5.133c0,55.44,0,110.88,0,166.32
		c0,0.999-0.18,2.044,0.056,2.984c0.249,0.993,0.651,2.305,1.412,2.751C276.943,334.901,280.261,336.473,284.09,338.438z
		 M342.33,155.708c0,54.801,0,109.306,0,163.611c4.022,1.254,7.789,2.428,11.532,3.594c0-55.819,0-111.446,0-167.206
		C349.982,155.708,346.387,155.708,342.33,155.708z M330.872,120.901c0-1.698,0.002-2.934,0-4.17
		c-0.017-8.618,0.272-17.25-0.133-25.85c-0.463-9.836-8.484-16.848-18.202-16.569c-9.494,0.273-16.776,7.65-16.935,17.436
		c-0.146,8.991-0.045,17.985-0.03,26.978c0.001,0.703,0.182,1.406,0.289,2.175C307.534,120.901,318.975,120.901,330.872,120.901z
		 M280.62,38.634c0.214,0.307,0.428,0.614,0.642,0.921c21.322,0,42.645,0,63.967,0c0.177-0.278,0.355-0.555,0.532-0.833
		c-4.145-3.945-8.313-7.866-12.427-11.843c-3.678-3.554-6.723-8.554-11.103-10.368c-4.38-1.815-10.069-0.473-15.184-0.512
		c-0.624-0.005-1.279-0.116-1.865,0.035c-0.802,0.206-1.736,0.425-2.298,0.966C295.43,24.178,288.032,31.413,280.62,38.634z
		 M179.401,160.08c0,14.797,0,28.913,0,43.289c14.845-4.933,29.281-9.73,44.265-14.71
		C208.694,178.993,194.252,169.669,179.401,160.08z M354.042,132.576c-27.383,0-54.391,0-81.417,0c0,4.036,0,7.817,0,11.473
		c27.311,0,54.312,0,81.417,0C354.042,140.134,354.042,136.538,354.042,132.576z M144.271,163.726
		c-14.779,4.909-29.261,9.719-44.23,14.69c14.821,9.569,29.302,18.919,44.23,28.557C144.271,192.16,144.271,178.117,144.271,163.726
		z M295.76,202.43c11.784,0,23.308,0,34.806,0c0-7.927,0-15.581,0-23.288c-11.739,0-23.17,0-34.806,0
		C295.76,186.943,295.76,194.522,295.76,202.43z M330.711,284.045c-11.915,0-23.443,0-34.947,0c0,7.882,0,15.459,0,23.211
		c11.736,0,23.262,0,34.947,0C330.711,299.416,330.711,291.845,330.711,284.045z M295.716,214.105c0,7.901,0,15.47,0,23.177
		c11.766,0,23.366,0,34.92,0c0-7.917,0-15.471,0-23.177C318.972,214.105,307.544,214.105,295.716,214.105z M295.76,272.299
		c11.829,0,23.267,0,34.806,0c0-7.835,0-15.473,0-23.173c-11.74,0-23.171,0-34.806,0C295.76,256.916,295.76,264.473,295.76,272.299z
		 M155.731,211.222c3.457-1.138,6.329-2.26,9.297-3.005c2.3-0.577,2.814-1.838,2.803-4.02c-0.077-14.957-0.036-29.914-0.051-44.872
		c-0.001-0.971-0.15-1.941-0.264-3.32c-2.736,0.889-5.151,1.882-7.663,2.438c-3.179,0.704-4.268,2.251-4.215,5.645
		c0.221,14.206,0.093,28.417,0.093,42.627C155.731,208.04,155.731,209.365,155.731,211.222z M295.736,167.457
		c11.865,0,23.287,0,34.884,0c0-3.986,0-7.762,0-11.614c-11.765,0-23.277,0-34.884,0C295.736,159.806,295.736,163.5,295.736,167.457
		z M167.448,322.87c0-10.121,0-19.977,0-30.101c-3.461,1.126-6.57,2.027-9.58,3.185c-0.854,0.328-2.011,1.391-2.027,2.138
		c-0.154,7.092-0.092,14.189-0.092,21.137C159.774,320.482,163.442,321.623,167.448,322.87z M295.747,337.799
		c5.274-1.269,9.705-3.121,13.011-6.93c4.289-4.941,9.724-8.046,15.734-10.324c0.947-0.359,1.862-0.798,3.588-1.545
		c-11.348,0-21.746,0-32.332,0C295.747,325.272,295.747,331.318,295.747,337.799z M156.007,51.213c0,7.738,0,15.256,0,23.184
		c3.648-1.218,6.953-2.252,10.191-3.462c0.648-0.242,1.479-1.148,1.491-1.762c0.112-5.942,0.067-11.888,0.067-17.961
		C163.555,51.213,159.869,51.213,156.007,51.213z"/>
	<path fill="#CC9F5A" d="M4.75,381.203c1.802-2.657,4.194-3.764,7.512-3.885c7.477-0.274,13.309-4.1,18.833-8.958
		c12.561-11.046,26.848-13.155,42.126-6.463c3.91,1.712,7.496,4.506,10.722,7.375c12.094,10.756,26.769,10.976,38.831,0.285
		c17.31-15.343,37.578-15.288,54.909,0.15c11.579,10.314,26.725,10.79,37.853,0.017c15.149-14.666,39.902-15.236,55.739,0.193
		c10.872,10.592,26.477,9.944,38.173-0.706c11.401-10.381,24.54-13.796,39.133-8.835c5.264,1.79,10.228,5.198,14.569,8.788
		c5.811,4.806,11.935,7.865,19.522,8.45c2.09,0.161,4.025,2.337,6.03,3.589c0,2.5,0,4.999,0,7.499c-3.5,0-6.999,0-10.499,0
		c-9.727-1.787-17.551-6.821-24.953-13.277c-9.939-8.67-24.849-7.827-34.981,0.86c-3.472,2.976-7.097,5.974-11.125,8.045
		c-4.002,2.058-8.597,2.962-12.931,4.373c-2.75,0-5.499,0-8.249,0c-10.289-1.673-18.534-6.905-26.375-13.657
		c-9.21-7.931-23.501-7.829-32.793,0.159c-7.421,6.379-15.223,11.424-24.821,13.497c-3.5,0-6.999,0-10.499,0
		c-9.783-2.015-17.571-7.345-25.117-13.742c-9.28-7.866-23.635-7.676-32.818,0.315c-7.509,6.534-15.439,11.638-25.304,13.427
		c-3.25,0-6.499,0-9.749,0c-9.63-2.002-17.449-7.018-24.873-13.421c-9.54-8.228-23.925-8.121-33.402,0.139
		c-7.406,6.455-15.235,11.491-24.965,13.282c-3.5,0-6.999,0-10.499,0C4.75,386.202,4.75,383.703,4.75,381.203z"/>
	<path fill="#CC9F5A" d="M43.464,261.002c3.412-0.053,5.786,1.729,6.233,4.677c0.449,2.965-1.259,5.646-4.576,6.216
		c-3.734,0.642-5.267,2.746-5.737,6.272c-0.504,3.783-3.08,5.902-6.222,5.47c-3.191-0.438-5.156-3.207-4.876-6.87
		C28.951,268.081,35.649,261.124,43.464,261.002z"/>
</g>
</svg>
